<?xml version="1.0" encoding="UTF-8" standalone="no"?>
<svg
   xmlns:osb="http://www.openswatchbook.org/uri/2009/osb"
   xmlns:dc="http://purl.org/dc/elements/1.1/"
   xmlns:cc="http://creativecommons.org/ns#"
   xmlns:rdf="http://www.w3.org/1999/02/22-rdf-syntax-ns#"
   xmlns:svg="http://www.w3.org/2000/svg"
   xmlns="http://www.w3.org/2000/svg"
   xmlns:sodipodi="http://sodipodi.sourceforge.net/DTD/sodipodi-0.dtd"
   xmlns:inkscape="http://www.inkscape.org/namespaces/inkscape"
   width="755.90552"
   height="755.90552"
   viewBox="0 0 200 200.00001"
   version="1.1"
   id="svg935"
   inkscape:version="1.0 (4035a4fb49, 2020-05-01)"
   sodipodi:docname="logo.svg"
   inkscape:export-filename="/home/luis/Documentos/SCTI/Arts/original/2020/LOGO/LOGO.png"
   inkscape:export-xdpi="143.46863"
   inkscape:export-ydpi="143.46863">
  <defs
     id="defs929">
    <rect
       id="rect1795"
       height="30.862642"
       width="50.752533"
       y="125.40844"
       x="78.572266" />
    <linearGradient
       osb:paint="solid"
       id="linearGradient1519">
      <stop
         id="stop1517"
         offset="0"
         style="stop-color:#000000;stop-opacity:1;" />
    </linearGradient>
  </defs>
  <sodipodi:namedview
     fit-margin-bottom="0"
     fit-margin-right="0"
     fit-margin-left="0"
     fit-margin-top="0"
     lock-margins="true"
     units="px"
     inkscape:guide-bbox="true"
     showguides="true"
     inkscape:window-maximized="1"
     inkscape:window-y="22"
     inkscape:window-x="0"
     inkscape:window-height="1033"
     inkscape:window-width="2560"
     showgrid="false"
     inkscape:document-rotation="0"
     inkscape:current-layer="layer3"
     inkscape:document-units="mm"
     inkscape:cy="415.74801"
     inkscape:cx="377.95276"
     inkscape:zoom="0.98994949"
     inkscape:pageshadow="2"
     inkscape:pageopacity="0.03529412"
     borderopacity="1.0"
     bordercolor="#666666"
     pagecolor="#00ff00"
     id="base">
    <sodipodi:guide
       id="guide1809"
       orientation="0,-1"
       position="-171.48512,155.57144" />
    <sodipodi:guide
       id="guide1811"
       orientation="0,-1"
       position="-172.61904,90.559529" />
    <sodipodi:guide
       id="guide1815"
       orientation="0,-1"
       position="-28.043155,155.57144" />
    <sodipodi:guide
       id="guide1817"
       orientation="0,-1"
       position="-38.626488,123.25447" />
  </sodipodi:namedview>
  <metadata
     id="metadata932">
    <rdf:RDF>
      <cc:Work
         rdf:about="">
        <dc:format>image/svg+xml</dc:format>
        <dc:type
           rdf:resource="http://purl.org/dc/dcmitype/StillImage" />
        <dc:title></dc:title>
      </cc:Work>
    </rdf:RDF>
  </metadata>
  <g
     transform="translate(-30.5,-30.5)"
     inkscape:label="3"
     id="layer5"
     inkscape:groupmode="layer">
    <path
       d="m 103.98519,97.934522 -0.75655,0.517727 c -0.4314,0.295087 -0.93265,0.851194 -1.16531,1.293821 l -0.40773,0.7766 -0.005,29.8122 c -0.004,26.52505 0.0252,29.8825 0.26976,30.45117 0.36673,0.85261 0.90798,1.39843 1.76786,1.78393 0.68013,0.30493 1.79215,0.31882 26.0218,0.32179 16.87493,0.002 25.53165,-0.0567 25.97205,-0.17547 0.88358,-0.23838 1.71617,-0.94628 2.11409,-1.79723 0.31224,-0.66783 0.32614,-1.95558 0.32814,-30.46039 l 0.002,-29.76359 -0.41393,-0.86307 c -0.27586,-0.575437 -0.66969,-1.035514 -1.18184,-1.380261 l -0.76843,-0.517227 h -25.88854 z m 22.9331,23.588108 c 1.19622,0.002 2.65866,0.27869 3.75687,0.72443 l 0.61134,0.24811 -0.37362,0.92242 -0.37362,0.92291 -1.16944,-0.38727 c -2.69921,-0.89383 -5.07214,-0.32509 -6.18001,1.48157 -0.77383,1.26189 -0.99658,2.45942 -0.90228,4.84532 0.0625,1.5803 0.16246,2.1765 0.48576,2.89462 0.49941,1.10927 1.51243,2.02919 2.53062,2.29858 0.91479,0.24206 3.36053,0.11217 4.7253,-0.25119 l 0.94103,-0.25068 -0.0527,0.97254 -0.0532,0.97203 -1.06557,0.31975 c -1.47893,0.44379 -3.99859,0.54236 -5.23535,0.20464 -3.47804,-0.94977 -5.34572,-3.99745 -5.11083,-8.34003 0.23856,-4.41043 2.87632,-7.27184 6.97119,-7.56138 0.15821,-0.0113 0.32366,-0.0166 0.49455,-0.0163 z m -15.58932,0.0322 c 0.97252,2.7e-4 2.01702,0.14582 2.97245,0.43639 0.78276,0.23805 1.37614,0.51444 1.37614,0.64102 0,0.17137 -0.41838,1.20173 -0.64337,1.5839 -0.0179,0.0304 -0.56845,-0.1054 -1.22319,-0.30184 -2.19774,-0.6594 -4.39244,-0.38454 -4.85812,0.60829 -0.32557,0.6941 -0.25201,2.03225 0.13849,2.51449 0.18758,0.23164 1.2465,0.87532 2.35335,1.42991 2.69034,1.34796 3.53167,1.96363 4.1238,3.02046 0.67671,1.20783 0.67439,2.43206 -0.007,3.64767 -0.5802,1.03553 -1.27521,1.5966 -2.58228,2.08526 -0.61127,0.22854 -1.47442,0.37166 -2.4531,0.40621 -1.70355,0.0601 -1.955,0.0268 -3.50782,-0.46248 l -1.11,-0.34943 v -1.07742 -1.0769 l 1.28778,0.42002 c 1.35996,0.44352 3.57685,0.67744 4.61886,0.48756 0.34208,-0.0623 0.83167,-0.30201 1.0878,-0.53258 0.40833,-0.36759 0.4656,-0.55443 0.4656,-1.51535 0,-1.01252 -0.0439,-1.13607 -0.57722,-1.62635 -0.3175,-0.29187 -1.45651,-0.96545 -2.53113,-1.49694 -2.03244,-1.00518 -2.82719,-1.60327 -3.5595,-2.6782 -1.31732,-1.93365 -0.31478,-4.68613 2.08724,-5.72935 0.66768,-0.28998 1.56841,-0.43469 2.54094,-0.43434 z m 22.46642,0.10384 h 6.03891 6.03942 v 1.03035 1.03036 l -2.35386,0.0481 -2.35335,0.0481 -0.0465,6.85844 -0.0465,6.85845 h -1.32809 -1.32808 l -0.0465,-6.85845 -0.0465,-6.85844 -2.26446,-0.0481 -2.26446,-0.0487 v -1.02984 z m 15.4528,5.3e-4 h 1.4211 1.4211 v 7.93638 7.93689 h -1.4211 -1.4211 v -7.93689 z"
       style="display:inline;fill:#ffffff;fill-opacity:1;stroke-width:1"
       id="path1237" />
  </g>
  <g
     transform="translate(-30.5,-30.5)"
     style="display:inline"
     id="layer1"
     inkscape:groupmode="layer"
     inkscape:label="Layer 1" />
  <g
     transform="translate(-30.5,-30.5)"
     inkscape:label="1"
     id="layer2"
     inkscape:groupmode="layer">
    <path
       d="m 130.38659,33.22651 a 97.273624,97.273418 0 0 0 -97.16008,97.27322 97.273624,97.273418 0 0 0 97.27364,97.27376 97.273624,97.273418 0 0 0 97.27334,-97.27376 97.273624,97.273418 0 0 0 -97.27334,-97.27322 97.273624,97.273418 0 0 0 -0.11356,0 z"
       style="display:inline;opacity:1;fill:#ff00ff;fill-opacity:0;stroke:#ffffff;stroke-width:5.45302;stroke-miterlimit:4;stroke-dasharray:none;stroke-opacity:1;paint-order:stroke fill markers"
       id="path1513" />
  </g>
  <g
     transform="translate(-30.5,-30.5)"
     inkscape:label="2"
     id="layer3"
     inkscape:groupmode="layer">
    <path
       id="path988"
       d="m 124.13267,44.63527 c -4.89246,0.665907 -9.76058,1.128968 -14.56512,2.39062 -1.31885,0.346363 -4.08036,0.606935 -4.5159,2.154737 -0.61173,2.174986 3.54093,5.061527 4.87115,6.391741 l 10.83502,10.834965 c 1.70555,1.70553 4.07682,3.44996 5.34771,5.506294 0.77195,1.249218 0.33624,3.549073 0.33624,4.973427 v 12.078321 c 0,2.71602 -0.60942,5.684795 2.84197,6.008952 0.97497,0.0917 2.59737,0.0625 3.29791,-0.720784 0.71795,-0.802847 0.60978,-2.158648 0.60978,-3.156702 V 83.636704 72.979361 c 0,-1.614765 0.31475,-3.618523 -0.27762,-5.150338 -0.51102,-1.321156 -2.1043,-1.940525 -3.0901,-2.873042 -1.63928,-1.550644 -2.4336,-3.779804 -2.43343,-6.008788 3.6e-4,-5.497235 5.75088,-9.54365 10.9522,-7.796734 4.90664,1.647803 7.26014,7.889808 4.42262,12.237294 -1.20091,1.839812 -3.8402,2.814604 -4.43541,4.973426 -0.42416,1.538388 -0.16483,3.38868 -0.16483,4.973427 v 9.591608 7.63776 c 0,1.117061 -0.11404,2.598445 0.62416,3.533079 0.57212,0.724527 1.53875,0.795394 2.39542,0.877274 1.19646,0.11439 3.17784,0.15862 3.99401,-0.877274 0.71902,-0.912614 0.44655,-2.446918 0.44655,-3.533079 V 81.86048 c 0,-1.072306 -0.1961,-2.378719 0.2794,-3.374825 0.92523,-1.939281 3.36363,-3.643035 4.87165,-5.151049 3.52989,-3.52989 6.92567,-7.323371 10.65734,-10.637982 1.13589,-1.009073 2.66522,-0.72985 4.08531,-0.72985 h 9.23637 c 1.19628,0 4.0116,0.479935 4.46773,-1.069109 0.3826,-1.299663 -1.48208,-2.27481 -2.33626,-2.838051 -3.0345,-2.000738 -6.26865,-3.872878 -9.59161,-5.353893 -11.27849,-5.026536 -23.13709,-8.14594 -35.52448,-8.14594 -2.49772,0 -5.16207,-0.26146 -7.63778,0.07549 m -26.998736,6.76386 c -1.758284,0.230732 -3.584419,1.392205 -5.151049,2.175519 -3.778205,1.88937 -7.358184,4.107163 -10.834965,6.498848 -0.981186,0.674965 -5.572724,3.471274 -3.0091,4.81108 1.352239,0.706759 3.652449,0.2794 5.140569,0.2794 h 11.723077 c 1.620626,0 4.381944,-0.540328 5.683914,0.559155 3.45602,2.918513 6.76141,6.401688 9.79948,9.742765 1.12329,1.235363 2.9228,2.339109 3.6086,3.90787 0.46218,1.057386 0.26892,2.428808 0.26892,3.552447 v 7.282519 c 0,3.200042 0.52399,5.19348 4.26296,4.744993 0.95242,-0.11404 1.90963,-0.253827 2.38495,-1.199651 0.55259,-1.099304 0.2794,-2.706255 0.2794,-3.900589 v -8.348251 c 0,-2.160776 0.56236,-5.26224 -0.26341,-7.282517 -0.80854,-1.978358 -3.22244,-3.663462 -4.71004,-5.151049 L 105.30459,58.059081 c -1.65758,-1.657572 -3.30557,-3.325446 -4.97345,-4.972716 -0.856143,-0.84566 -1.886885,-1.859351 -3.197206,-1.687235 m 37.656096,3.732557 c -5.28071,1.145132 -3.23663,8.979699 1.95385,7.77986 4.87254,-1.126303 2.94782,-8.84293 -1.95385,-7.77986 m 30.01818,12.080098 c -2.41548,0.557379 -4.36826,3.386193 -6.03916,5.057087 l -5.15105,5.151049 c -0.90178,0.901788 -2.0629,1.808906 -2.55545,3.01958 -0.7961,1.957754 -0.2865,4.841808 -0.2865,6.927273 0,1.741232 -0.67941,5.341285 0.60729,6.700089 1.45757,1.539441 4.66436,0.0636 6.48162,1.459691 2.07747,1.596101 1.08829,4.201096 2.57712,5.831846 0.9787,1.07196 2.61496,0.53465 3.83327,1.05348 1.04104,0.44317 1.59984,1.56184 2.66433,1.98031 2.45705,0.96592 5.93081,0.38154 8.52588,0.38154 1.18367,0 2.47321,0.15737 3.55244,-0.42932 1.69807,-0.92345 4.24163,-3.29667 5.03489,-5.076977 0.91422,-2.051518 -1.06272,-4.924553 -0.50498,-7.282478 1.55881,-6.589257 9.84951,-8.709713 14.34176,-3.714261 4.20503,4.676265 1.64319,11.723036 -4.12901,13.597136 -2.0034,0.65045 -4.40645,-0.6652 -6.21678,0.42078 -1.87729,1.12613 -3.37341,3.17554 -4.95762,4.66721 -0.75561,0.71155 -1.40926,1.66876 -2.50252,1.86272 -3.73593,0.66289 -7.92924,-0.12007 -11.72308,0.0474 -1.99594,0.0883 -2.62419,1.52205 -4.26294,2.31708 -1.5565,0.75525 -3.84392,0.28331 -4.47537,2.29417 -0.4794,1.52649 -0.33446,4.09651 1.45597,4.62813 1.19824,0.35596 2.39346,-0.1373 3.54907,0.56342 1.34674,0.81671 1.35651,2.45528 3.2004,2.60732 3.56133,0.29361 7.26067,0.0165 10.83497,0.0165 h 21.49231 9.59161 c 1.33216,0 3.18299,0.32789 4.44056,-0.15862 2.30198,-0.89202 0.90765,-5.00753 0.56839,-6.76865 -1.28777,-6.67576 -3.35174,-13.14477 -6.09956,-19.360813 -3.41035,-7.713065 -8.04824,-14.979952 -13.62452,-21.314676 -1.80287,-2.048164 -3.78211,-4.866676 -6.24431,-6.145202 -1.83626,-0.953654 -4.72991,-0.426826 -6.74966,-0.426826 h -11.54545 c -1.79807,0 -3.92812,-0.311195 -5.68392,0.09396 m -91.475674,3.178552 c -1.345667,0.176735 -3.014607,-0.214035 -4.262937,0.381711 -1.807486,0.862357 -3.299514,3.176599 -4.54287,4.694026 -3.57021,4.35761 -6.833311,9.166203 -9.355548,14.209795 -1.046196,2.092208 -3.754405,5.730617 -3.233793,8.170605 0.297872,1.396271 1.609791,2.417428 2.567176,3.374808 l 6.394405,6.39441 9.236364,9.23636 c 1.344601,1.3446 2.825972,3.44463 4.618182,4.17714 1.13181,0.46253 2.532362,0.26342 3.73007,0.26342 h 7.104895 c 2.115127,0 5.528496,0.64672 7.459962,-0.2794 1.220976,-0.58544 1.751179,-1.99097 3.019758,-2.5432 1.201793,-0.52327 2.893469,-0.24867 3.831315,-1.30268 1.105165,-1.24176 0.942995,-4.58639 -0.636776,-5.36455 -1.137316,-0.5604 -2.553322,-0.12434 -3.724742,-0.58882 -1.323819,-0.5247 -1.78173,-1.79541 -3.377489,-1.96877 -2.287244,-0.24885 -5.945732,0.81245 -7.993007,-0.28561 -3.77714,-2.02579 -5.6642,-7.52604 -9.769231,-9.13299 -2.011929,-0.787574 -4.306099,-0.0874 -6.394406,-1.072474 -5.059928,-2.387235 -6.259945,-8.882509 -2.631653,-12.985768 3.928474,-4.442513 11.109925,-3.397561 13.68243,1.953669 0.762,1.585457 1.104988,3.418521 0.69024,5.151052 -0.330377,1.380824 -1.334832,2.798065 -1.034117,4.262916 0.28757,1.401601 2.007843,2.590245 2.970024,3.552425 1.263605,1.26361 2.529342,2.94019 4.085314,3.84322 1.653842,0.95969 5.323165,0.99859 7.104895,0.31972 1.139093,-0.43411 1.670184,-1.57445 2.664514,-2.21442 1.304991,-0.83998 3.393653,-0.45898 4.237892,-1.95189 0.981187,-1.735014 0.168741,-3.633785 1.681907,-5.308576 1.91017,-2.114408 5.6209,0.16519 7.28576,-1.989898 1.0073,-1.303921 0.47124,-4.098808 0.47124,-5.664549 0,-1.904112 0.42256,-4.405035 -0.22381,-6.216784 -0.48385,-1.356147 -1.80821,-2.387244 -2.79579,-3.374825 -2.26239,-2.262376 -4.77896,-5.848394 -7.637797,-7.311647 -2.109798,-1.080122 -5.328493,-0.503737 -7.637762,-0.503737 -5.723703,0 -11.912777,-0.669282 -17.584615,0.07531 m -2.309091,16.882475 c -5.496347,0.964489 -3.79508,8.816092 1.598601,7.850898 4.827954,-0.864124 3.173579,-8.68821 -1.598601,-7.850898 m 120.250505,2.488138 c -5.58747,0.868394 -4.14233,8.827089 1.42098,7.849455 4.75708,-0.835884 3.38797,-8.596894 -1.42098,-7.849455 M 50.242337,103.98793 c -1.487587,0.20497 -1.730219,2.27552 -2.056867,3.45013 -1.01973,3.66844 -1.706418,7.42213 -2.229871,11.19021 -1.897363,13.65401 -0.284729,28.12509 4.607169,41.03077 1.151526,3.03806 2.444972,5.97575 3.897923,8.88112 0.57745,1.15455 1.155256,2.71407 2.708208,2.63769 1.984753,-0.0977 4.030607,-3.11549 5.328672,-4.41391 l 12.788811,-12.78881 c 0.945839,-0.94584 2.096299,-2.61869 3.374825,-3.0901 1.052235,-0.38793 2.617799,-0.10711 3.73007,-0.10711 3.340722,0 7.415201,0.61795 10.657343,-0.27869 1.151881,-0.31847 1.808018,-1.41298 2.841958,-1.93128 1.24531,-0.62417 3.060256,-0.22026 4.008937,-1.36183 1.079235,-1.29825 0.633225,-3.57821 -0.989534,-4.15779 -0.988824,-0.35329 -2.030579,-0.10995 -3.019403,-0.39201 -0.933761,-0.26626 -1.551176,-1.09149 -2.486714,-1.37782 -2.061485,-0.63109 -4.44269,-0.44743 -6.572028,-0.44743 H 75.286382 c -1.69736,0 -3.899877,-0.36768 -5.506116,0.2492 -1.315116,0.50499 -1.709971,1.93662 -2.545329,2.948 -1.454372,1.76077 -3.468787,3.08424 -5.803101,3.19028 -5.421567,0.24601 -10.215062,-4.81748 -8.746658,-10.29517 1.352949,-5.04714 7.495664,-8.01912 12.121484,-5.24377 1.862903,1.11778 2.930236,3.72936 5.151049,4.1196 1.858818,0.32664 3.975544,0.0584 5.861538,0.0584 h 11.723077 c 1.809084,0 4.16187,0.39166 5.861538,-0.32931 1.179058,-0.50018 1.9558,-1.61654 3.197203,-2.05988 1.532526,-0.54744 3.403783,-0.20303 3.822613,-2.22899 0.81085,-3.92172 -2.347104,-3.05546 -4.710725,-3.85494 -1.286163,-0.43499 -1.948517,-1.58705 -3.374825,-1.80517 -4.535765,-0.69344 -9.446313,-0.20143 -14.032168,-0.20143 -1.59718,0 -4.308941,0.51795 -5.683916,-0.38153 -2.006067,-1.31227 -3.466478,-3.44285 -5.167035,-5.09456 -3.621542,-3.51782 -7.351968,-6.97968 -10.788783,-10.68488 -1.296821,-1.39806 -4.332387,-5.51713 -6.423891,-5.22902 m 120.249793,21.46531 c -1.29664,0.17034 -2.64924,-0.0531 -3.90769,0.36306 -1.10925,0.36696 -1.91246,1.27817 -3.01958,1.67711 -0.95668,0.34458 -2.12632,0.27265 -3.01177,0.78029 -1.32719,0.76111 -1.44638,3.26399 -0.46626,4.34678 1.14798,1.2684 3.15511,0.41794 4.54358,1.28243 1.11814,0.6961 1.67836,1.84408 3.01976,2.22241 2.4114,0.68012 5.32779,0.26519 7.81539,0.26519 h 15.0979 c 2.13822,0 5.45443,-0.63233 7.46014,0.10711 1.27852,0.47141 2.42898,2.14425 3.37482,3.09009 l 7.1049,7.1049 c 1.03554,1.035 2.7265,3.57731 4.43701,3.1194 1.7176,-0.45951 1.76201,-3.66133 2.02667,-5.07325 0.85614,-4.5807 1.17408,-9.20563 1.17408,-13.85454 0,-1.5272 0.47603,-4.01924 -1.07284,-4.95762 -1.02133,-0.61759 -2.41211,-0.32842 -3.54534,-0.37798 -2.90057,-0.12718 -5.79227,-0.1707 -8.7035,-0.1707 h -21.31468 c -3.59508,0 -7.4486,-0.39254 -11.01259,0.0753 m -110.30365,9.4218 c -5.254603,0.96609 -3.901653,8.96407 1.420979,8.02906 4.984972,-0.87568 3.542678,-8.94151 -1.420979,-8.02906 m 106.92883,5.69475 c -1.37178,0.31723 -2.08689,1.60233 -3.37483,2.0883 -1.06698,0.40267 -2.41034,0.2453 -3.3512,0.96218 -1.22151,0.93092 -1.27231,3.5203 0.16181,4.2839 1.13572,0.60481 2.69134,0.14281 3.89722,0.72808 0.95667,0.46412 1.44211,1.52364 2.48937,1.85206 2.71656,0.85206 6.74308,0.11599 9.59161,0.11599 1.76965,0 4.02173,-0.36466 5.50629,0.79628 1.99648,1.5613 3.71533,3.62954 5.5063,5.4205 l 10.65734,10.65735 c 1.33998,1.33927 4.03629,5.3038 6.21678,4.71942 1.95918,-0.52753 3.24872,-4.62884 3.9823,-6.31802 1.07639,-2.47269 3.74073,-6.64486 3.23983,-9.41399 -0.254,-1.39664 -1.65722,-2.42863 -2.60394,-3.37483 l -6.74965,-6.74965 c -1.72365,-1.72364 -3.75405,-4.66418 -6.03916,-5.59812 -2.32384,-0.94975 -6.03384,-0.26341 -8.52588,-0.26341 h -13.85454 c -2.12437,0 -4.67698,-0.38509 -6.74965,0.094 m 0.17762,14.56503 c -1.33626,0.30907 -1.88191,1.52098 -3.01958,2.14106 -1.23466,0.67284 -3.24143,0.38047 -4.06951,1.69132 -1.08385,1.71619 -0.45809,3.73629 -2.15438,5.2864 -1.86965,1.70837 -4.9967,-0.24512 -6.89655,1.34407 -1.05276,0.88047 -0.73411,2.61389 -0.73411,3.8306 0,3.63593 1.57409,4.94856 4.08532,7.46014 0.91706,0.91653 1.8423,2.13147 3.01958,2.7194 2.29044,1.14567 6.69654,0.30018 9.23636,0.30018 0.94691,0 2.17126,0.19716 3.01248,-0.33037 1.12026,-0.69984 1.6311,-2.25936 2.52472,-3.21497 2.07054,-2.21495 5.0086,-3.10129 7.9621,-2.4725 7.67773,1.63235 8.07063,11.54723 2.13147,15.36256 -3.11727,2.00358 -7.40792,1.2398 -9.93087,-1.35881 -1.05596,-1.08705 -1.72045,-3.02136 -3.21319,-3.59153 -1.43163,-0.54708 -3.31567,-0.24867 -4.7958,-0.14743 -2.45687,0.16875 -5.37645,0.31972 -7.81539,-0.0178 -1.22221,-0.16874 -1.98439,-1.29131 -2.84195,-2.06752 -1.786,-1.61637 -3.43558,-3.34641 -5.10736,-5.07823 -0.80019,-0.82949 -1.93519,-1.70339 -2.41442,-2.76735 -1.07408,-2.38369 0.49752,-5.43169 -0.4254,-7.81468 -0.6993,-1.80464 -4.65602,-1.87231 -6.04698,-0.88722 -0.81351,0.57603 -0.91458,1.75153 -0.92541,2.66274 -0.0249,2.07107 -7.1e-4,4.1457 -7.1e-4,6.21678 0,2.64302 -0.68509,6.4246 0.37443,8.88112 0.88491,2.05154 3.39507,3.7727 4.95424,5.32867 3.94179,3.93611 7.9605,7.78341 11.9007,11.72308 1.86432,1.86503 3.80645,3.65014 5.68391,5.50629 1.12595,1.11192 2.38423,2.30199 4.08532,2.09772 2.75741,-0.33038 5.80079,-2.65368 8.17063,-4.00183 7.81982,-4.44767 14.81282,-10.38736 20.77294,-17.10148 1.75881,-1.98227 3.4139,-4.064 4.95744,-6.21679 0.62096,-0.86679 1.57568,-1.8899 1.58812,-3.01958 0.0131,-1.1954 -1.15171,-2.23093 -1.92117,-3.01958 -1.92844,-1.97693 -3.90591,-3.90947 -5.85887,-5.86154 l -9.05874,-9.05874 c -1.39078,-1.39078 -2.83787,-3.37269 -4.61818,-4.26293 -1.15899,-0.57941 -2.65084,-0.35525 -3.9077,-0.35525 -2.72295,0 -6.04981,-0.51954 -8.70349,0.094 m -85.614142,0.69912 c -2.565045,0.46253 -4.485854,3.08655 -6.186588,4.88391 -3.540547,3.74161 -7.318042,7.27879 -10.913296,10.968 -1.386343,1.42276 -4.468091,3.3624 -4.50628,5.55781 -0.02025,1.15454 0.828075,2.13502 1.460056,3.01958 1.622935,2.27179 3.392765,5.10131 5.583737,6.858 1.967168,1.57729 5.772372,1.13501 8.167965,1.13501 h 14.565035 c 2.403408,0 5.095275,0.3357 7.46014,-0.11013 2.372502,-0.44761 4.062403,-2.88636 5.683933,-4.50806 l 4.97345,-4.97342 c 0.84496,-0.84549 1.89631,-1.68386 2.31443,-2.84196 0.51902,-1.43697 0.1723,-3.45831 0.1723,-4.97343 0,-1.21849 0.36892,-3.17766 -0.35685,-4.22936 -0.6842,-0.99078 -2.13077,-0.92133 -3.19562,-0.92169 -1.84426,-7.1e-4 -3.38195,0.002 -4.97079,-1.08438 -1.16823,-0.79859 -1.78778,-2.15385 -1.92614,-3.5338 -0.09627,-0.95756 0.1428,-2.03679 -0.612801,-2.7924 -1.035361,-1.03572 -2.642133,-0.42629 -3.858136,-0.91227 -0.898059,-0.35897 -1.527375,-1.11831 -2.486713,-1.39291 -1.618673,-0.46342 -3.484063,-0.23109 -5.151049,-0.23109 -2.00589,0 -4.240379,-0.27389 -6.216783,0.0826 m 35.879812,9.22926 c -5.30365,0.71582 -1.6995,9.01523 -3.1688,12.5357 -0.67568,1.61814 -2.34249,2.77269 -3.57396,3.93789 -1.6034,1.5169 -3.03238,3.2274 -4.62531,4.7585 -1.83521,1.76379 -3.97166,4.99297 -6.39426,5.91483 -1.376751,0.52399 -3.510529,0.13144 -4.973427,0.13144 H 83.634634 c -2.241772,0 -4.510721,-0.10302 -6.749651,0.007 -0.823457,0.0409 -1.840345,0.31262 -2.046742,1.23981 -0.382954,1.71938 2.519751,3.34463 3.645344,4.19366 4.367556,3.28957 8.958917,6.2754 13.854545,8.72481 14.8871,7.44949 31.62136,10.36782 48.13582,8.60048 3.88762,-0.41741 7.75748,-1.12257 11.54545,-2.09594 1.50073,-0.38544 3.46151,-0.6803 4.78799,-1.50269 2.94658,-1.82418 -2.57499,-5.93969 -3.90254,-7.14042 -4.97467,-4.4974 -9.61434,-9.44418 -14.38475,-14.15828 -1.50766,-1.48847 -4.64393,-3.36772 -4.78799,-5.68391 -0.29929,-4.81357 -0.008,-9.74082 -0.008,-14.56504 0,-1.5613 0.38064,-4.19615 -1.5986,-4.74198 -1.27302,-0.35099 -3.97821,-0.54246 -4.84234,0.67603 -0.67338,0.94974 -0.48634,2.43715 -0.48634,3.53308 v 8.17063 9.41399 c 0,1.59505 -0.23979,3.4139 0.12096,4.97343 0.53483,2.31441 3.64393,3.36061 4.79492,5.50629 2.97464,5.54359 -1.64407,12.68046 -7.93548,12.23996 -5.78697,-0.40498 -9.57035,-7.18305 -6.76674,-12.23996 1.07995,-1.94852 4.0587,-3.05155 4.58109,-5.15105 1.11529,-4.48141 0.23179,-10.13336 0.23179,-14.74266 v -7.993 c 0,-1.14212 0.12736,-2.75741 -0.62416,-3.71071 -0.74673,-0.94744 -2.53736,-0.98066 -3.6388,-0.83199 m 60.39167,12.97976 c -5.49972,0.74957 -4.18034,8.55607 1.24336,7.87045 4.87662,-0.61458 3.66825,-8.53831 -1.24336,-7.87045 m -54.35247,19.35551 c -5.23758,0.9858 -3.48444,8.83849 1.77623,7.82604 5.01216,-0.96271 3.19189,-8.76211 -1.77623,-7.82604 z"
       style="display:inline;fill:#ffffff;fill-opacity:1;stroke:none;stroke-width:1" />
  </g>
</svg>
