<svg id="Capa_1" enable-background="new 0 0 512 512" height="512" viewBox="0 0 512 512" width="512" xmlns="http://www.w3.org/2000/svg"><g><g><path d="m467 0h-125.907l-341.093 152v315c0 24.813 20.187 45 45 45h422c24.813 0 45-20.187 45-45v-422c0-24.813-20.187-45-45-45z" fill="#f4f4f6"/><path d="m467 0h-125.907l-85.093 37.92v474.08h211c24.813 0 45-20.187 45-45v-422c0-24.813-20.187-45-45-45z" fill="#e2dff4"/><path d="m329.236 384.251c-1.972 0-3.975-.391-5.902-1.217l-127.297-54.556c-7.614-3.263-11.142-12.082-7.878-19.696 3.264-7.615 12.079-11.142 19.696-7.878l127.297 54.556c7.614 3.263 11.142 12.082 7.878 19.696-2.437 5.687-7.974 9.095-13.794 9.095z" fill="#6b61b1"/><path d="m257 152h-257v-107c0-24.853 20.147-45 45-45h296.093l-70.633 143.62c-2.523 5.13-7.743 8.38-13.46 8.38z" fill="#ff7038"/><path d="m256 152h1c5.717 0 10.937-3.25 13.46-8.38l70.633-143.62h-85.093z" fill="#ff1f3d"/><circle cx="91" cy="76" fill="#ff1f3d" r="15"/><circle cx="151" cy="76" fill="#8bb9ff" r="15"/><circle cx="211" cy="76" fill="#ffe278" r="15"/></g><g><path d="m201.953 290.313c-5.819 0-11.356-3.407-13.794-9.095-3.264-7.614.264-16.433 7.878-19.696l127.297-54.556c7.613-3.263 16.434.263 19.696 7.878 3.264 7.614-.264 16.433-7.878 19.696l-127.297 54.556c-1.926.826-3.93 1.217-5.902 1.217z" fill="#6b61b1"/><g><path d="m343.03 214.845c-3.263-7.615-12.083-11.142-19.696-7.878l-67.334 28.857v32.639l79.152-33.922c7.615-3.264 11.142-12.082 7.878-19.696z" fill="#38336b"/><path d="m329.236 384.251c5.819 0 11.356-3.408 13.794-9.095 3.264-7.614-.264-16.433-7.878-19.696l-79.152-33.922v32.639l67.334 28.857c1.928.826 3.931 1.217 5.902 1.217z" fill="#6b61b1"/></g><path d="m335.152 355.46-79.152-33.922v32.639l67.334 28.857c1.928.826 3.931 1.217 5.902 1.217 5.819 0 11.356-3.408 13.794-9.095 3.264-7.614-.263-16.433-7.878-19.696z" fill="#38336b"/><path d="m156 360c-35.841 0-65-29.159-65-65s29.159-65 65-65 65 29.159 65 65-29.159 65-65 65z" fill="#8bb9ff"/><path d="m156 230v130c35.841 0 65-29.159 65-65s-29.159-65-65-65z" fill="#7d81e7"/><path d="m366 260c-30.327 0-55-24.673-55-55s24.673-55 55-55 55 24.673 55 55-24.673 55-55 55z" fill="#8bb9ff"/><path d="m366 150v110c30.327 0 55-24.673 55-55s-24.673-55-55-55z" fill="#7d81e7"/><path d="m366 440c-30.327 0-55-24.673-55-55s24.673-55 55-55 55 24.673 55 55-24.673 55-55 55z" fill="#8bb9ff"/><path d="m366 330v110c30.327 0 55-24.673 55-55s-24.673-55-55-55z" fill="#7d81e7"/></g></g></svg>