<svg id="Capa_1" enable-background="new 0 0 512 512" height="512" viewBox="0 0 512 512" width="512" xmlns="http://www.w3.org/2000/svg"><g><g><g><g><g><g><g><path d="m358.594 36.208v96.473l-29.341 34.76v327.045h-145.533v-255.955l-17.994-23.818c-12.549-16.61-19.326-36.85-19.326-57.652v-120.853z" fill="#873f30"/></g></g></g><path d="m331.656 36.208v79.341c0 29.028-23.609 52.637-52.637 52.637-17.067 0-32.253-8.161-41.877-20.788-3.604.783-7.338 1.201-11.165 1.201-14.547 0-27.722-5.915-37.255-15.474-4.988 1.567-10.29 2.416-15.8 2.416-9.676 0-18.725-2.612-26.521-7.182v-92.151z" fill="#6c3328"/><g><path d="m294.364 120.129c0 2.05-.814 4.018-2.266 5.46l-3.894 3.904c-12.609 12.599-17.585 30.463-13.31 47.79 1.02 4.152-1.514 8.334-5.656 9.354-.618.155-1.246.227-1.854.227-3.472 0-6.634-2.359-7.5-5.882-5.388-21.902.525-44.473 15.844-60.822l-36.798-36.808c-9.591-9.581-15.597-29.03-10.497-47.141h16.431c-5.841 13.351-1.844 29.381 4.986 36.211l42.248 42.248c1.452 1.442 2.266 3.409 2.266 5.459z" fill="#632c25"/></g><g><g><path d="m172.923 109.429c-14.649 0-26.525-11.875-26.525-26.524v-56.11c0-10.818 8.769-19.587 19.587-19.587h13.875c10.818 0 19.587 8.769 19.587 19.587v56.109c0 14.65-11.875 26.525-26.524 26.525z" fill="#a34f41"/><g><path d="m199.443 26.795v56.114c0 10.693-6.325 19.913-15.453 24.096v-99.351c8.839 1.896 15.453 9.746 15.453 19.141z" fill="#6c3328"/></g><path d="m225.972 122.487c-14.649 0-26.525-11.875-26.525-26.524v-69.168c0-10.818 8.769-19.587 19.587-19.587h13.875c10.818 0 19.587 8.769 19.587 19.587v69.167c0 14.65-11.875 26.525-26.524 26.525z" fill="#a34f41"/><g><path d="m252.497 26.795v69.166c0 10.693-6.336 19.913-15.453 24.106v-112.413c8.84 1.896 15.453 9.746 15.453 19.141z" fill="#6c3328"/></g><g><path d="m252.497 75.069v20.892c0 .309-.01.628-.02.938l-13.547-13.547c-13.052-13.042-19.47-44.339-.288-65.684 2.205-2.194 4.636-4.049 7.232-5.553 3.904 3.451 6.418 8.427 6.614 13.99-.876.597-1.71 1.288-2.493 2.06-12.548 14.155-8.427 35.974-.144 44.257z" fill="#6c3328"/></g><g><path d="m252.497 75.069v20.892c0 .309-.01.628-.02.938l-13.547-13.547c-.649-.649-1.277-1.339-1.885-2.071v-61.738c.515-.639 1.04-1.257 1.597-1.875 2.205-2.194 4.636-4.049 7.232-5.553 3.904 3.451 6.418 8.427 6.614 13.99-.876.597-1.71 1.288-2.493 2.06-12.548 14.155-8.427 35.974-.144 44.257z" fill="#632c25"/></g><path d="m279.021 142.074c-14.649 0-26.525-11.875-26.525-26.524v-88.755c0-10.818 8.769-19.587 19.587-19.587h13.875c10.818 0 19.587 8.769 19.587 19.587v88.755c0 14.649-11.875 26.524-26.524 26.524z" fill="#a34f41"/><g><path d="m305.542 26.795v88.75c0 10.704-6.336 19.924-15.453 24.106v-131.997c8.839 1.896 15.453 9.746 15.453 19.141z" fill="#6c3328"/></g><g><path d="m294.364 120.129c0 2.05-.814 4.018-2.266 5.46l-3.894 3.904c-3.77 3.77-6.871 8.015-9.23 12.578-5.543-.01-10.693-1.72-14.948-4.646 2.905-6.233 6.83-12.063 11.703-17.266l-23.232-23.239v-21.85l39.6 39.6c1.453 1.442 2.267 3.409 2.267 5.459z" fill="#6c3328"/></g><path d="m332.07 122.487c-14.649 0-26.525-11.875-26.525-26.524v-69.168c0-10.818 8.769-19.587 19.587-19.587h13.875c10.818 0 19.587 8.769 19.587 19.587v69.167c0 14.65-11.875 26.525-26.524 26.525z" fill="#a34f41"/><g><g><path d="m358.596 26.795v69.166c0 10.693-6.336 19.913-15.453 24.106v-112.413c8.839 1.896 15.453 9.746 15.453 19.141z" fill="#6c3328"/></g></g></g></g><g><path d="m271.256 21.877 76.283 70.086c8.451 7.764 14.841 17.506 18.597 28.351l11.541 33.326c3.432 9.91 2.85 20.77-1.623 30.256l-8.399 17.815c-4.253 9.02-10.032 17.238-17.084 24.289l-39.497 39.497-8.271-21.336c-6.408-16.53-14.414-32.36-23.176-47.772-12.624-22.204-9.468-50.943 9.468-69.879l3.166-3.166c2.012-2.012 2.012-5.273 0-7.284l-38.6-38.6c-15.202-15.202-15.202-39.848 0-55.05 4.802-4.8 12.511-5.034 17.595-.533z" fill="#873f30"/><path d="m377.672 153.64-11.53-33.324c-3.761-10.851-10.146-20.592-18.608-28.349l-76.272-70.083c-2.442-2.154-5.484-3.225-8.527-3.225-3.291 0-6.581 1.254-9.075 3.748-6.842 6.855-10.603 15.618-11.282 24.562.118-.13.235-.248.366-.379 2.39-2.39 5.537-3.604 8.697-3.604 2.899 0 5.811 1.031 8.148 3.095l56.228 51.697c8.096 7.43 14.22 16.766 17.811 27.148l11.047 31.914c3.291 9.48 2.729 19.887-1.554 28.963l-14.194 30.112-23.848 21.39c-6.704 6.013-10.534 14.593-10.534 23.598v63.224h34.709v-76.807l21.32-21.32c7.053-7.053 12.834-15.273 17.087-24.296l8.394-17.808c4.477-9.481 5.052-20.345 1.617-30.256z" fill="#6c3328"/></g></g><g><path d="m329.249 494.483v-245.207" style="fill:none;stroke:#000;stroke-width:15;stroke-linecap:round;stroke-linejoin:round;stroke-miterlimit:10"/></g></g></g><g><g><g><g><g><g><path d="m220.167 206.059v100.097l-30.444 36.066v152.268c0 5.69-4.612 10.302-10.302 10.302h-130.395c-5.69 0-10.302-4.612-10.302-10.302v-76.782c0-1.121-.365-2.211-1.041-3.105l-17.629-23.335c-13.02-17.234-20.052-38.234-20.052-59.817v-125.392z" fill="#ffcec0"/></g></g></g><path d="m192.216 206.059v82.321c0 30.119-24.496 54.615-54.615 54.615-17.708 0-33.465-8.468-43.45-21.569-3.739.813-7.614 1.246-11.584 1.246-15.093 0-28.764-6.138-38.654-16.055-5.175 1.626-10.676 2.507-16.394 2.507-10.04 0-19.429-2.71-27.517-7.452v-95.613z" fill="#fdb0a0"/><g><path d="m151.055 298.474-4.883 4.883c-13.145 13.145-18.337 31.781-13.887 49.861 1.02 4.152-1.504 8.334-5.656 9.354-.618.155-1.236.227-1.844.227-3.482 0-6.634-2.359-7.5-5.882-5.687-23.107.804-46.935 17.379-63.902l-38.363-38.375c-.134-.123-.258-.258-.371-.391-11.435-13.186-14.814-31.74-10.137-48.192h16.359c-5.182 12.352-3.43 27.66 5.275 37.869l43.628 43.618c3.019 3.019 3.019 7.912 0 10.93z" fill="#f9a08f"/></g><g><g><path d="m27.521 282.03c-15.2 0-27.521-12.322-27.521-27.521v-58.217c0-11.224 9.099-20.323 20.323-20.323h14.396c11.224 0 20.323 9.099 20.323 20.323v58.217c0 15.199-12.322 27.521-27.521 27.521z" fill="#ffdfd0"/><g><path d="m55.043 196.291v58.216c0 10.879-6.305 20.274-15.453 24.735v-102.69c8.88 2.184 15.453 10.199 15.453 19.739z" fill="#fdb0a0"/></g><path d="m82.563 295.578c-15.199 0-27.521-12.321-27.521-27.521v-71.766c0-11.224 9.099-20.323 20.323-20.323h14.396c11.224 0 20.323 9.099 20.323 20.323v71.766c-.001 15.2-12.322 27.521-27.521 27.521z" fill="#ffdfd0"/><g><path d="m110.085 196.291v71.762c0 10.879-6.305 20.274-15.453 24.745v-116.246c8.881 2.184 15.453 10.199 15.453 19.739z" fill="#fdb0a0"/></g><g><path d="m110.085 246.584v21.469c0 .124 0 .247-.01.371l-13.774-13.784c-.134-.123-.258-.258-.371-.391-16.225-18.698-16.236-48.213-.041-67.199 2.194-2.514 4.44-4.677 6.737-6.48 4.141 3.379 6.923 8.375 7.386 14.021-.804.773-1.617 1.617-2.431 2.555-11.054 12.96-11.126 33.914-.154 46.781z" fill="#fdb0a0"/></g><g><path d="m110.085 246.584v21.469c0 .124 0 .247-.01.371l-13.774-13.784c-.134-.123-.258-.258-.371-.391-.443-.515-.876-1.04-1.298-1.566v-64.088c.402-.525.824-1.04 1.257-1.545 2.194-2.514 4.44-4.677 6.737-6.48 4.141 3.379 6.923 8.375 7.386 14.021-.804.773-1.617 1.617-2.431 2.555-11.054 12.96-11.126 33.914-.154 46.781z" fill="#f9a08f"/></g><path d="m137.604 315.901c-15.199 0-27.521-12.321-27.521-27.521v-92.089c0-11.224 9.099-20.323 20.323-20.323h14.396c11.224 0 20.323 9.099 20.323 20.323v92.089c0 15.2-12.321 27.521-27.521 27.521z" fill="#ffdfd0"/><g><path d="m165.128 196.291v92.088c0 10.879-6.305 20.274-15.453 24.735v-136.562c8.88 2.184 15.453 10.199 15.453 19.739z" fill="#fdb0a0"/></g><g><path d="m151.055 298.474-4.883 4.883c-3.77 3.771-6.882 7.994-9.313 12.527-5.511-.134-10.631-1.906-14.876-4.842 3.163-6.542 7.407-12.63 12.682-18.028l-24.58-24.59v-21.84l40.97 40.96c3.019 3.019 3.019 7.912 0 10.93z" fill="#fdb0a0"/></g><path d="m192.646 295.578c-15.199 0-27.521-12.321-27.521-27.521v-71.766c0-11.224 9.099-20.323 20.323-20.323h14.396c11.224 0 20.323 9.099 20.323 20.323v71.766c0 15.2-12.322 27.521-27.521 27.521z" fill="#ffdfd0"/><g><path d="m220.17 196.291v71.762c0 10.879-6.305 20.274-15.453 24.745v-116.246c8.871 2.184 15.453 10.199 15.453 19.739z" fill="#fdb0a0"/></g></g><g><path d="" style="fill:none;stroke:#000;stroke-width:15;stroke-linecap:round;stroke-linejoin:round;stroke-miterlimit:10"/></g></g><g><path d="m129.548 191.189 79.149 72.719c8.768 8.056 15.399 18.164 19.295 29.416l11.975 34.578c3.561 10.283 2.957 21.55-1.684 31.393l-8.715 18.485c-4.412 9.359-10.409 17.885-17.726 25.202l-40.981 40.981-8.581-22.138c-6.648-17.151-14.955-33.575-24.047-49.566-13.098-23.038-9.823-52.857 9.823-72.503l3.422-3.422c2.012-2.012 2.012-5.273 0-7.284l-40.187-40.187c-15.773-15.773-15.773-41.345 0-57.118 4.983-4.983 12.982-5.226 18.257-.556z" fill="#ffcec0"/><path d="m239.962 327.901-11.964-34.576c-3.902-11.259-10.527-21.366-19.307-29.414l-79.137-72.715c-2.534-2.235-5.691-3.346-8.847-3.346-3.414 0-6.829 1.301-9.416 3.888-7.099 7.113-11.001 16.204-11.706 25.485.122-.135.244-.257.379-.393 2.479-2.479 5.745-3.739 9.023-3.739 3.008 0 6.029 1.07 8.454 3.211l58.34 53.639c8.4 7.709 14.755 17.396 18.48 28.167l11.462 33.113c3.414 9.836 2.832 20.634-1.612 30.051l-14.727 31.243-24.744 22.194c-6.955 6.238-10.929 15.141-10.929 24.484v65.599h25.71c5.69 0 10.302-4.612 10.302-10.302v-69.391l22.12-22.121c7.318-7.318 13.316-15.847 17.729-25.209l8.709-18.477c4.648-9.835 5.244-21.107 1.681-31.391z" fill="#fdb0a0"/><g><path d="m189.718 425.506v21.86l-8.169 8.169c-1.514 1.504-3.492 2.266-5.47 2.266s-3.956-.752-5.46-2.266c-3.018-3.018-3.018-7.912 0-10.93z" fill="#f9a08f"/></g></g></g></g><g><g><g><g><g><path d="m490.069 206.059v100.097l-30.606 36.066v152.268c0 5.69-4.612 10.302-10.302 10.302h-130.396c-5.69 0-10.302-4.612-10.302-10.302v-76.782c0-1.121-.366-2.211-1.041-3.105l-17.629-23.335c-13.02-17.234-20.052-38.234-20.052-59.817v-125.392z" fill="#f9a08f"/></g></g></g><path d="m461.956 206.059v82.321c0 30.119-24.496 54.615-54.615 54.615-17.708 0-33.465-8.468-43.45-21.569-3.739.813-7.614 1.246-11.584 1.246-15.093 0-28.764-6.138-38.654-16.055-5.176 1.626-10.676 2.507-16.394 2.507-10.04 0-19.429-2.71-27.517-7.452v-95.613z" fill="#f69583"/><g><path d="m420.746 298.474-4.873 4.883c-13.155 13.145-18.337 31.781-13.887 49.861 1.02 4.152-1.514 8.334-5.656 9.354-.618.155-1.246.227-1.854.227-3.472 0-6.634-2.359-7.5-5.882-5.687-23.107.814-46.935 17.389-63.902l-38.374-38.374c-.124-.123-.247-.258-.371-.391-11.435-13.186-14.814-31.74-10.137-48.192h16.349c-5.172 12.362-3.42 27.66 5.295 37.869l43.618 43.618c3.02 3.018 3.02 7.911.001 10.929z" fill="#ea8678"/></g><g><g><path d="m297.26 282.03c-15.199 0-27.521-12.322-27.521-27.521v-58.217c0-11.224 9.099-20.323 20.323-20.323h14.396c11.224 0 20.323 9.099 20.323 20.323v58.217c0 15.199-12.321 27.521-27.521 27.521z" fill="#fdb0a0"/><g><path d="m324.785 196.291v58.216c0 10.879-6.305 20.274-15.453 24.735v-102.69c8.87 2.184 15.453 10.199 15.453 19.739z" fill="#f69583"/></g><path d="m352.302 295.578c-15.199 0-27.521-12.321-27.521-27.521v-71.766c0-11.224 9.099-20.323 20.323-20.323h14.396c11.224 0 20.323 9.099 20.323 20.323v71.766c0 15.2-12.322 27.521-27.521 27.521z" fill="#fdb0a0"/><g><path d="m379.828 196.291v71.762c0 10.879-6.305 20.274-15.453 24.745v-116.246c8.87 2.184 15.453 10.199 15.453 19.739z" fill="#f69583"/></g><path d="m407.344 315.901c-15.199 0-27.521-12.321-27.521-27.521v-92.089c0-11.224 9.099-20.323 20.323-20.323h14.396c11.224 0 20.323 9.099 20.323 20.323v92.089c0 15.2-12.322 27.521-27.521 27.521z" fill="#fdb0a0"/><g><path d="m434.86 196.291v92.088c0 10.879-6.305 20.274-15.453 24.735v-136.562c8.87 2.184 15.453 10.199 15.453 19.739z" fill="#f69583"/></g><path d="m462.385 295.578c-15.199 0-27.521-12.321-27.521-27.521v-71.766c0-11.224 9.099-20.323 20.323-20.323h14.396c11.224 0 20.323 9.099 20.323 20.323v71.766c0 15.2-12.321 27.521-27.521 27.521z" fill="#fdb0a0"/><g><g><path d="m489.903 196.291v71.762c0 10.879-6.305 20.274-15.453 24.745v-116.246c8.87 2.184 15.453 10.199 15.453 19.739z" fill="#f69583"/></g></g></g></g><g><path d="m399.288 191.189 79.149 72.719c8.768 8.056 15.399 18.164 19.295 29.416l11.975 34.578c3.561 10.283 2.957 21.55-1.684 31.393l-8.715 18.485c-4.412 9.359-10.409 17.885-17.726 25.202l-40.981 40.981-8.581-22.138c-6.648-17.151-14.955-33.575-24.047-49.566-13.098-23.038-9.823-52.857 9.823-72.503l3.422-3.422c2.012-2.012 2.012-5.273 0-7.284l-40.187-40.187c-15.773-15.773-15.773-41.345 0-57.118 4.983-4.983 12.982-5.226 18.257-.556z" fill="#f9a08f"/><path d="m509.701 327.901-11.964-34.576c-3.902-11.259-10.527-21.366-19.307-29.414l-79.137-72.715c-2.534-2.235-5.69-3.346-8.847-3.346-3.414 0-6.829 1.301-9.416 3.888-7.099 7.113-11.001 16.204-11.706 25.485.122-.135.244-.257.379-.393 2.479-2.479 5.745-3.739 9.023-3.739 3.008 0 6.029 1.07 8.454 3.211l58.34 53.639c8.4 7.709 14.755 17.396 18.48 28.167l11.462 33.113c3.414 9.836 2.832 20.634-1.612 30.051l-14.727 31.243-24.744 22.194c-6.955 6.238-10.929 15.141-10.929 24.484v65.599h25.71c5.69 0 10.302-4.612 10.302-10.302v-69.391l22.12-22.121c7.318-7.318 13.316-15.847 17.729-25.209l8.709-18.477c4.648-9.835 5.244-21.107 1.681-31.391z" fill="#f69583"/><g><path d="m459.461 425.506v21.85l-8.18 8.18c-1.504 1.504-3.482 2.266-5.46 2.266s-3.956-.752-5.46-2.266c-3.018-3.018-3.018-7.912 0-10.93z" fill="#ea8678"/></g><g><path d="m379.828 246.625v21.428c0 .134 0 .278-.01.412l-13.825-13.825c-.124-.123-.247-.258-.371-.391-16.215-18.698-16.236-48.213-.041-67.199 2.204-2.524 4.461-4.698 6.768-6.501 4.141 3.379 6.923 8.365 7.397 14-.814.783-1.638 1.648-2.473 2.596-11.054 12.96-11.126 33.914-.144 46.781z" fill="#f69583"/></g><g><path d="m379.828 246.625v21.428c0 .134 0 .278-.01.412l-13.825-13.825c-.124-.123-.247-.258-.371-.391-.433-.494-.845-.999-1.246-1.504v-64.222c.392-.505.793-.989 1.205-1.473 2.204-2.524 4.461-4.698 6.768-6.501 4.141 3.379 6.923 8.365 7.397 14-.814.783-1.638 1.648-2.473 2.596-11.054 12.96-11.126 33.914-.144 46.781z" fill="#ea8678"/></g><g><path d="m420.746 298.474-4.873 4.883c-3.77 3.771-6.892 7.994-9.323 12.527-5.512-.144-10.611-1.926-14.855-4.873 3.163-6.531 7.407-12.61 12.671-17.997l-24.539-24.539v-21.85l40.919 40.919c3.019 3.019 3.019 7.912 0 10.93z" fill="#f69583"/></g></g></g></g></g></g></svg>